
<svg xmlns="http://www.w3.org/2000/svg" version="1.1" xmlns:xlink="http://www.w3.org/1999/xlink" preserveAspectRatio="none" x="0px" y="0px" width="1024px" height="1024px" viewBox="0 0 1024 1024">
<defs>
<g id="Interpoler_3_0_Layer0_0_MEMBER_0_FILL">
<path fill="#9B6442" stroke="none" d="
M 58.05 121.4
L 57.95 146.05 111.75 146.2 111.8 121.55 58.05 121.4 Z"/>
</g>

<g id="Interpoler_3_0_Layer0_0_MEMBER_1_FILL">
<path fill="#6A432D" stroke="none" d="
M 80.7 146.65
L 80.55 196.2
Q 80.55 198.1 81.9 199.4 83.25 200.75 85.1 200.75 87 200.75 88.3 199.45 89.65 198.1 89.65 196.2
L 89.8 146.7
Q 89.8 144.85 88.45 143.5 87.15 142.15 85.25 142.15 83.35 142.15 82.05 143.45 80.7 144.8 80.7 146.65 Z"/>
</g>

<g id="Interpoler_3_0_Layer0_0_MEMBER_2_FILL">
<path fill="#6A432D" stroke="none" d="
M 78.9 149.6
Q 77.8 150.65 77.8 152.15 77.8 153.6 78.85 154.7 79.9 155.75 81.4 155.75
L 89.15 155.8
Q 90.65 155.8 91.7 154.75 92.75 153.65 92.75 152.15 92.75 150.7 91.7 149.6 90.65 148.55 89.15 148.55
L 81.45 148.55
Q 79.95 148.5 78.9 149.6 Z"/>
</g>

<g id="Interpoler_3_0_Layer0_0_MEMBER_3_FILL">
<path fill="#D8A359" stroke="none" d="
M 80.25 121.45
L 80.2 146.15 90.55 146.15 90.6 121.5 80.25 121.45 Z"/>
</g>

<g id="Interpoler_3_0_Layer0_0_MEMBER_4_FILL">
<path fill="#6A432D" stroke="none" d="
M 108.95 -156.9
Q 102.55 -163.3 93.75 -163.3 84.9 -163.3 78.5 -156.9 72.1 -150.7 72.1 -141.65
L 71.9 -65.9
Q 71.9 -57.05 78.1 -50.65 84.5 -44.45 93.35 -44.45 102.15 -44.25 108.55 -50.65 115 -57.05 115 -65.9
L 115.2 -141.65
Q 115.2 -150.5 108.95 -156.9 Z"/>
</g>

<g id="Interpoler_3_0_Layer0_0_MEMBER_5_FILL">
<path fill="#6A432D" stroke="none" d="
M -71 -142.05
Q -70.8 -150.9 -77.2 -157.3 -83.65 -163.7 -92.45 -163.7 -101.25 -163.7 -107.7 -157.5 -113.9 -151.1 -114.1 -142.25
L -114.3 -66.5
Q -114.3 -57.45 -107.9 -51.05 -101.45 -44.85 -92.65 -44.85 -83.85 -44.85 -77.4 -51.05 -71.2 -57.45 -71.2 -66.3
L -71 -142.05 Z"/>
</g>

<g id="Interpoler_3_0_Layer0_0_MEMBER_6_FILL">
<path fill="#9B6442" stroke="none" d="
M 90.2 120.7
Q 89.85 121 89.85 121.5
L 89.75 146.35
Q 89.75 146.8 90.1 147.15 90.45 147.45 90.9 147.45 91.4 147.45 91.7 147.15 92.05 146.8 92.05 146.35
L 92.1 121.5
Q 92.1 121 91.75 120.7 91.45 120.35 90.95 120.35 90.5 120.35 90.2 120.7 Z"/>
</g>

<g id="Interpoler_3_0_Layer0_0_MEMBER_7_FILL">
<path fill="#9B6442" stroke="none" d="
M 78.9 120.65
Q 78.55 121 78.55 121.45
L 78.5 146.3
Q 78.5 146.75 78.85 147.1 79.15 147.45 79.6 147.45 80.1 147.45 80.4 147.1 80.75 146.8 80.75 146.3
L 80.8 121.45
Q 80.8 121 80.5 120.65 80.15 120.35 79.7 120.3 79.2 120.3 78.9 120.65 Z"/>
</g>

<g id="Interpoler_3_0_Layer0_0_MEMBER_8_FILL">
<path fill="#9B6442" stroke="none" d="
M 80.05 173.8
Q 79.6 174.2 79.6 174.8 79.6 175.4 80 175.85 80.45 176.25 81 176.25
L 89.1 176.25
Q 89.7 176.25 90.15 175.85 90.55 175.4 90.55 174.85 90.55 174.25 90.15 173.85 89.7 173.4 89.15 173.4
L 81.05 173.4
Q 80.45 173.35 80.05 173.8 Z"/>
</g>

<g id="Interpoler_3_0_Layer0_0_MEMBER_9_FILL">
<path fill="#9B6442" stroke="none" d="
M 80.05 170
Q 79.6 170.4 79.6 171 79.6 171.6 80.05 172.05 80.45 172.45 81.05 172.45
L 89.15 172.45
Q 89.7 172.45 90.15 172.05 90.55 171.6 90.55 171 90.55 170.45 90.15 170 89.75 169.6 89.15 169.6
L 81.05 169.55
Q 80.45 169.55 80.05 170 Z"/>
</g>

<g id="Interpoler_4_0_Layer0_0_FILL">
<path fill="#020203" stroke="none" d="
M -34.15 -38.35
L -34.15 -33.35
Q -29.9 -33.35 -27.5 -32.75 -25.3 -31.75 -24.5 -29.95 -23.7 -27.75 -23.7 -23.3
L -23.7 22.8
Q -23.7 27.4 -24.5 29.6 -25.1 31.8 -27.5 32.6 -30.3 33.4 -34.15 33.4
L -34.15 38.4 5.75 38.4
Q 19.4 38.4 26.8 33.2 34.2 27.8 34.2 17.75 34.2 10.55 31.2 6.55 28.2 2.35 23.6 0.35 18.4 -1.9 14.2 -2.3
L 14.2 -3.1
Q 21.4 -4.9 26.2 -9.1 30.8 -13.3 30.8 -21.1 30.8 -25.95 28.2 -30.15 25.8 -33.95 19.8 -36.35 14 -38.35 3.35 -38.35
L -34.15 -38.35
M -6.85 -31.75
L -1.65 -31.95
Q 6.75 -31.95 9.75 -28.75 12.8 -25.75 12.8 -18.7 12.8 -11.1 9.75 -8.1 7.15 -4.9 -1.45 -4.9
L -6.85 -4.9 -6.85 -31.75
M 13.2 6.95
Q 15.4 10.75 15.4 17.55 15.4 22.8 14.2 25.8 13 28.8 10.95 30.2 8.75 31.6 5.75 32.2 2.15 32.6 -0.65 32.6
L -6.85 32.2 -6.85 1.35 -0.45 1.35
Q 3.35 1.35 7.35 2.35 10.55 3.35 13.2 6.95 Z"/>
</g>

<g id="Symbole_1_0_Layer0_0_FILL">
<path fill="#020203" stroke="none" d="
M 70.6 154.95
L 67.65 154.95 61.55 170.15
Q 61 171.45 60.7 171.9 60.3 172.55 59.9 172.75 59.3 173 58.7 173
L 58.7 174.25 65.1 174.25 65.1 173
Q 64.2 173 63.6 172.8 63.2 172.55 63.2 171.9
L 63.3 171.05 64.4 168.1 70.85 168.1 71.9 171.1 72.05 172.05
Q 72.05 172.5 71.8 172.7 71.6 172.85 71.15 172.95
L 70.4 173 70.4 174.25 79.45 174.25 79.45 173
Q 78.45 173 77.85 172.3 77.2 171.65 76.65 170.2
L 70.6 154.95
M 67.75 159.3
L 67.85 159.3 70.35 166.55 64.9 166.55 67.75 159.3 Z"/>
</g>

<g id="Symbole_1_0_Layer0_1_FILL">
<path fill="#020203" stroke="none" d="
M 80.6 168.3
L 80.85 174.6 82.05 174.6
Q 82.05 174.15 82.25 173.95 82.5 173.7 82.8 173.7 83.05 173.7 83.45 173.95 83.65 174.05 84.6 174.35 85.35 174.6 86.65 174.6 88.65 174.6 90.35 173.95 92 173.25 92.85 172.05 93.7 170.8 93.7 169 93.7 167.65 93.25 166.6 92.8 165.55 92.05 164.8 91.2 163.95 90.35 163.5 89.6 163 88.4 162.45
L 86.3 161.4
Q 85.35 160.9 84.7 160.15 84.15 159.55 84.15 158.4 84.15 157.25 84.9 156.7 85.6 156.15 87.15 156.15 88.7 156.15 89.75 157.2 90.75 158.25 91.4 160.9
L 92.7 160.9 92.55 154.75 91.45 154.75
Q 91.4 155.2 91.15 155.35
L 90.6 155.45 89.85 155.3
Q 89.5 155.15 88.7 154.95 88.1 154.75 86.95 154.75 85.1 154.75 83.6 155.3 82.2 155.95 81.45 156.95 80.7 158 80.7 159.65 80.7 161.45 81.35 162.55 82.05 163.75 83.15 164.4
L 85.6 165.85
Q 87 166.55 87.65 166.95 88.55 167.5 89.15 168.3 89.75 169.15 89.75 170.35 89.75 171.35 89.25 171.9 88.65 172.5 87.95 172.7 87.05 172.95 86.25 172.95 85.05 172.95 84.3 172.55 83.5 172.15 83 171.2 82.5 170.3 82 168.3
L 80.6 168.3 Z"/>
</g>

<g id="Symbole_1_0_Layer0_2_FILL">
<path fill="#020203" stroke="none" d="
M 102 156.15
Q 103.55 156.15 104.6 157.2 105.65 158.25 106.25 160.9
L 107.55 160.9 107.4 154.75 106.35 154.75
Q 106.3 155.15 106 155.35
L 105.5 155.45
Q 105.15 155.45 104.7 155.3 104.35 155.15 103.55 154.95 102.95 154.75 101.8 154.75 100 154.75 98.5 155.3 97.1 155.9 96.35 156.95 95.55 157.95 95.55 159.65 95.55 161.4 96.25 162.55 96.95 163.75 98.05 164.4 99.35 165.25 100.45 165.85 101.55 166.35 102.5 166.95 103.5 167.55 104.05 168.3 104.6 169.15 104.6 170.35 104.6 171.35 104.1 171.9 103.6 172.5 102.8 172.7 101.9 172.95 101.1 172.95 99.85 172.95 99.2 172.55 98.4 172.2 97.85 171.2 97.25 170.05 96.85 168.3
L 95.45 168.3 95.7 174.6 96.9 174.6
Q 96.9 174.2 97.15 173.95 97.3 173.7 97.65 173.7 97.95 173.7 98.35 173.95 98.6 174.1 99.45 174.35 100.3 174.6 101.55 174.6 103.5 174.6 105.2 173.95 106.85 173.3 107.7 172.05 108.6 170.85 108.6 169 108.6 167.65 108.15 166.6 107.7 165.5 106.9 164.8 106.05 163.95 105.2 163.5 104.3 162.9 103.25 162.45
L 101.15 161.4
Q 100.3 160.95 99.6 160.15 99 159.5 99 158.4 99 157.25 99.75 156.7 100.45 156.15 102 156.15 Z"/>
</g>

<g id="Symbole_1_0_Layer0_3_FILL">
<path fill="#020203" stroke="none" d="
M 112.1 156.55
Q 112.7 156.8 112.85 157.3 113 157.9 113 159
L 113 170.55
Q 113 171.7 112.75 172.15 112.55 172.65 111.95 172.8 111.4 173 110.4 173
L 110.4 174.25 126.5 174.25 127.2 168.5 125.85 168.5
Q 125.4 169.95 125.15 170.45 124.8 171.3 124.25 171.65 123.7 172.1 122.8 172.3
L 117.2 172.45 117.2 165.2 119.7 165.2
Q 121.1 165.2 121.75 165.35 122.4 165.5 122.55 166.1 122.75 166.55 122.75 167.9
L 124.05 167.9 124.05 161.15 122.75 161.15
Q 122.75 162.35 122.55 162.8 122.4 163.35 121.75 163.5 120.85 163.6 119.7 163.6
L 117.2 163.6 117.2 156.9 120.9 156.9
Q 122.5 156.9 123.25 157.2 124.05 157.55 124.4 158.3 124.7 158.9 124.95 160.35
L 126.4 160.35 126.2 155.1 110.4 155.1 110.4 156.35
Q 111.4 156.35 112.1 156.55 Z"/>
</g>

<g id="Symbole_1_0_Layer0_4_MEMBER_0_FILL">
<path fill="#020203" stroke="none" d="
M 40.1 187.65
L 37.9 189.85 40 191.95
Q 40.3 195.35 42.3 197.8 44.9 201 49.15 201 52.05 201 54.5 199 56.9 196.9 57.25 194
L 55.15 193.2
Q 54.8 195.1 53.4 196.55 51.95 198 50.05 198 47.4 198 46.05 195 45.4 193.55 45.2 192
L 47.25 189.8 45.15 187.65
Q 45.35 186 46 184.45 47.35 181.4 49.85 181.4 53.25 181.4 54.45 186.7
L 56.15 186.65 56.15 179.55 54.4 179.4
Q 51.25 178.95 48.85 178.95 44.4 178.95 42 182.55 40.55 184.8 40.1 187.65 Z"/>
</g>

<g id="Symbole_1_0_Layer0_4_MEMBER_1_FILL">
<path fill="#020203" stroke="none" d="
M 78.4 182.4
Q 75.8 178.8 71.6 178.8 67.35 178.8 64.65 182.4 62.8 184.9 62.35 187.75
L 60.25 189.85 62.3 191.9
Q 62.75 195.1 64.6 197.6 67.3 201.15 71.4 201.15 75.65 201.15 78.35 197.6 80.15 195.15 80.65 192.05
L 82.75 189.8 80.6 187.65
Q 80.2 184.9 78.4 182.4
M 71.6 181.55
Q 73.5 181.55 74.3 185.35
L 74.7 187.7 72.5 189.85 74.75 192.1 74.8 192.05
Q 74.5 198.7 71.6 198.7 69.7 198.7 68.75 195.35 68.35 194.1 68.05 192.1
L 70.2 189.8 68.1 187.65
Q 68.7 181.55 71.6 181.55 Z"/>
</g>

<g id="Symbole_1_0_Layer0_4_MEMBER_2_FILL">
<path fill="#020203" stroke="none" d="
M 94.2 183.65
Q 94.2 182.7 94.75 182.05 95.35 181.35 96.25 181.35
L 96.25 179.05 87.15 179.1 87.15 181.35
Q 88.25 181.15 88.85 182.05 89.35 182.75 89.35 183.95
L 89.35 187.75 87.25 189.85 89.35 192 89.35 193.25
Q 89.35 196.55 91.55 198.8 93.75 201 97.05 201 99.8 201 101.95 199.25 104.25 197.4 104.25 194.7
L 104.25 191.6 105.95 189.8 104.25 188.1 104.25 183.65
Q 104.25 181.55 106.15 181.55
L 106.35 181.55 106.3 178.95 98.8 179.05 98.8 181.35
Q 101.4 181.45 101.4 184.7
L 101.4 188.25 99.8 189.85 101.4 191.5 101.4 194.1
Q 101.4 195.7 100.55 196.8 99.7 197.95 97.95 197.95 94.2 197.95 94.2 194
L 94.2 192.1 96.3 189.8 94.2 187.65 94.2 183.65 Z"/>
</g>

<g id="Symbole_1_0_Layer0_4_MEMBER_3_FILL">
<path fill="#020203" stroke="none" d="
M 111.45 181.7
Q 113 181.7 113 184.1
L 113 187.75 110.9 189.85 113 192 113 196.1
Q 113 197.05 112.4 197.75 111.85 198.45 110.9 198.55
L 110.9 200.55
Q 120 200.65 120.5 200.5
L 120.5 198.25
Q 119.5 198.2 118.85 197.4 118.2 196.65 118.2 195.55
L 118.2 192.9
Q 118.2 191.85 119.8 191.85 121.35 191.85 122.55 194.45
L 124.05 198.4
Q 125.5 200.75 128.2 200.75 129.65 200.75 130.9 199.75 132.1 198.7 132.1 197.25 132.1 196.25 131.5 195.05 130.55 196.85 129.55 196.85 128.9 196.85 128.05 195.35
L 127.05 193.25
Q 126.15 191.65 124.75 191
L 129.4 189.75 128.4 188.25
Q 128.8 187.4 128.8 186.1 128.8 183.05 126.85 180.95 124.9 178.9 121.75 178.9
L 110.8 179.1 110.8 181.85 111.45 181.7
M 119.45 189.55
L 118.35 189.4 118.35 184.7
Q 118.35 182.05 121.5 182.05 122.75 182.05 123.35 182.95 123.95 183.7 123.95 185.05 123.95 187.1 122.7 188.3 121.5 189.55 119.45 189.55 Z"/>
</g>
</defs>

<g transform="matrix( 0.9816436767578125, 0.1906585693359375, -0.1906585693359375, 0.9816436767578125, 343.2,425.15) ">
<g transform="matrix( 4.0087738037109375, 0, 0, 4.0087738037109375, -340.2,-641.15) ">
<use xlink:href="#Interpoler_3_0_Layer0_0_MEMBER_0_FILL"/>
</g>

<g transform="matrix( 4.0087738037109375, 0, 0, 4.0087738037109375, -340.2,-641.15) ">
<use xlink:href="#Interpoler_3_0_Layer0_0_MEMBER_1_FILL"/>
</g>

<g transform="matrix( 4.0087738037109375, 0, 0, 4.0087738037109375, -340.2,-641.15) ">
<use xlink:href="#Interpoler_3_0_Layer0_0_MEMBER_2_FILL"/>
</g>

<g transform="matrix( 4.0087738037109375, 0, 0, 4.0087738037109375, -340.2,-641.15) ">
<use xlink:href="#Interpoler_3_0_Layer0_0_MEMBER_3_FILL"/>
</g>

<g transform="matrix( 1, 0, 0, 1, 0,0) ">
<use xlink:href="#Interpoler_3_0_Layer0_0_MEMBER_4_FILL"/>
</g>

<g transform="matrix( 1, 0, 0, 1, 0,0) ">
<use xlink:href="#Interpoler_3_0_Layer0_0_MEMBER_5_FILL"/>
</g>

<g transform="matrix( 4.0087738037109375, 0, 0, 4.0087738037109375, -340.2,-641.15) ">
<use xlink:href="#Interpoler_3_0_Layer0_0_MEMBER_6_FILL"/>
</g>

<g transform="matrix( 4.0087738037109375, 0, 0, 4.0087738037109375, -340.2,-641.15) ">
<use xlink:href="#Interpoler_3_0_Layer0_0_MEMBER_7_FILL"/>
</g>

<g transform="matrix( 4.0087738037109375, 0, 0, 4.0087738037109375, -340.2,-641.15) ">
<use xlink:href="#Interpoler_3_0_Layer0_0_MEMBER_8_FILL"/>
</g>

<g transform="matrix( 4.0087738037109375, 0, 0, 4.0087738037109375, -340.2,-641.15) ">
<use xlink:href="#Interpoler_3_0_Layer0_0_MEMBER_9_FILL"/>
</g>
</g>

<g transform="matrix( 1, 0, 0, 1, 422.4,507.7) ">
<g transform="matrix( 1, 0, 0, 1, 47.75,39.75) ">
<g transform="matrix( 1, 0, 0, 1, 0,0) ">
<use xlink:href="#Interpoler_4_0_Layer0_0_FILL"/>
</g>
</g>

<g transform="matrix( 4.00897216796875, 0, 0, 4.00897216796875, -151.95,-620.4) ">
<use xlink:href="#Symbole_1_0_Layer0_0_FILL"/>
</g>

<g transform="matrix( 4.00897216796875, 0, 0, 4.00897216796875, -151.95,-620.4) ">
<use xlink:href="#Symbole_1_0_Layer0_1_FILL"/>
</g>

<g transform="matrix( 4.00897216796875, 0, 0, 4.00897216796875, -151.95,-620.4) ">
<use xlink:href="#Symbole_1_0_Layer0_2_FILL"/>
</g>

<g transform="matrix( 4.00897216796875, 0, 0, 4.00897216796875, -151.95,-620.4) ">
<use xlink:href="#Symbole_1_0_Layer0_3_FILL"/>
</g>

<g transform="matrix( 4.0087738037109375, 0, 0, 4.0087738037109375, -151.95,-620.4) ">
<use xlink:href="#Symbole_1_0_Layer0_4_MEMBER_0_FILL"/>
</g>

<g transform="matrix( 4.0087738037109375, 0, 0, 4.0087738037109375, -151.95,-620.4) ">
<use xlink:href="#Symbole_1_0_Layer0_4_MEMBER_1_FILL"/>
</g>

<g transform="matrix( 4.0087738037109375, 0, 0, 4.0087738037109375, -151.95,-620.4) ">
<use xlink:href="#Symbole_1_0_Layer0_4_MEMBER_2_FILL"/>
</g>

<g transform="matrix( 4.0087738037109375, 0, 0, 4.0087738037109375, -151.95,-620.4) ">
<use xlink:href="#Symbole_1_0_Layer0_4_MEMBER_3_FILL"/>
</g>
</g>
</svg>
