<svg xmlns="http://www.w3.org/2000/svg" xmlns:xlink="http://www.w3.org/1999/xlink" preserveAspectRatio="none" width="1024" height="1024"><defs><path fill="#9B6442" d="M80.05 170q-.45.4-.45 1t.45 1.05q.4.4 1 .4h8.1q.55 0 1-.4.4-.45.4-1.05 0-.55-.4-1-.4-.4-1-.4l-8.1-.05q-.6 0-1 .45Z" id="j"/><path fill="#9B6442" d="m58.05 121.4-.1 24.65 53.8.15.05-24.65-53.75-.15Z" id="a"/><path fill="#6A432D" d="M78.9 149.6q-1.1 1.05-1.1 2.55 0 1.45 1.05 2.55 1.05 1.05 2.55 1.05l7.75.05q1.5 0 2.55-1.05 1.05-1.1 1.05-2.6 0-1.45-1.05-2.55-1.05-1.05-2.55-1.05h-7.7q-1.5-.05-2.55 1.05Z" id="c"/><path fill="#D8A359" d="m80.25 121.45-.05 24.7h10.35l.05-24.65-10.35-.05Z" id="d"/><path fill="#6A432D" d="M108.95-156.9q-6.4-6.4-15.2-6.4-8.85 0-15.25 6.4-6.4 6.2-6.4 15.25l-.2 75.75q0 8.85 6.2 15.25 6.4 6.2 15.25 6.2 8.8.2 15.2-6.2Q115-57.05 115-65.9l.2-75.75q0-8.85-6.25-15.25Z" id="e"/><path fill="#6A432D" d="M-71-142.05q.2-8.85-6.2-15.25-6.45-6.4-15.25-6.4t-15.25 6.2q-6.2 6.4-6.4 15.25l-.2 75.75q0 9.05 6.4 15.45 6.45 6.2 15.25 6.2t15.25-6.2q6.2-6.4 6.2-15.25l.2-75.75Z" id="f"/><path fill="#9B6442" d="M90.2 120.7q-.35.3-.35.8l-.1 24.85q0 .45.35.8.35.3.8.3.5 0 .8-.3.35-.35.35-.8l.05-24.85q0-.5-.35-.8-.3-.35-.8-.35-.45 0-.75.35Z" id="g"/><path fill="#9B6442" d="M78.9 120.65q-.35.35-.35.8l-.05 24.85q0 .45.35.8.3.35.75.35.5 0 .8-.35.35-.3.35-.8l.05-24.85q0-.45-.3-.8-.35-.3-.8-.35-.5 0-.8.35Z" id="h"/><path fill="#9B6442" d="M80.05 173.8q-.45.4-.45 1t.4 1.05q.45.4 1 .4h8.1q.6 0 1.05-.4.4-.45.4-1 0-.6-.4-1-.45-.45-1-.45h-8.1q-.6-.05-1 .4Z" id="i"/><path fill="#6A432D" d="m80.7 146.65-.15 49.55q0 1.9 1.35 3.2 1.35 1.35 3.2 1.35 1.9 0 3.2-1.3 1.35-1.35 1.35-3.25l.15-49.5q0-1.85-1.35-3.2-1.3-1.35-3.2-1.35-1.9 0-3.2 1.3-1.35 1.35-1.35 3.2Z" id="b"/><path fill="#020203" d="M-34.15-38.35v5q4.25 0 6.65.6 2.2 1 3 2.8.8 2.2.8 6.65v46.1q0 4.6-.8 6.8-.6 2.2-3 3-2.8.8-6.65.8v5h39.9q13.65 0 21.05-5.2 7.4-5.4 7.4-15.45 0-7.2-3-11.2-3-4.2-7.6-6.2-5.2-2.25-9.4-2.65v-.8q7.2-1.8 12-6 4.6-4.2 4.6-12 0-4.85-2.6-9.05-2.4-3.8-8.4-6.2-5.8-2-16.45-2h-37.5m27.3 6.6 5.2-.2q8.4 0 11.4 3.2 3.05 3 3.05 10.05 0 7.6-3.05 10.6-2.6 3.2-11.2 3.2h-5.4v-26.85M13.2 6.95q2.2 3.8 2.2 10.6 0 5.25-1.2 8.25t-3.25 4.4q-2.2 1.4-5.2 2-3.6.4-6.4.4l-6.2-.4V1.35h6.4q3.8 0 7.8 1 3.2 1 5.85 4.6Z" id="k"/><path fill="#020203" d="M70.6 154.95h-2.95l-6.1 15.2q-.55 1.3-.85 1.75-.4.65-.8.85-.6.25-1.2.25v1.25h6.4V173q-.9 0-1.5-.2-.4-.25-.4-.9l.1-.85 1.1-2.95h6.45l1.05 3 .15.95q0 .45-.25.65-.2.15-.65.25l-.75.05v1.25h9.05V173q-1 0-1.6-.7-.65-.65-1.2-2.1l-6.05-15.25m-2.85 4.35h.1l2.5 7.25H64.9l2.85-7.25Z" id="l"/><path fill="#020203" d="m80.6 168.3.25 6.3h1.2q0-.45.2-.65.25-.25.55-.25.25 0 .65.25.2.1 1.15.4.75.25 2.05.25 2 0 3.7-.65 1.65-.7 2.5-1.9.85-1.25.85-3.05 0-1.35-.45-2.4-.45-1.05-1.2-1.8-.85-.85-1.7-1.3-.75-.5-1.95-1.05l-2.1-1.05q-.95-.5-1.6-1.25-.55-.6-.55-1.75t.75-1.7q.7-.55 2.25-.55t2.6 1.05q1 1.05 1.65 3.7h1.3l-.15-6.15h-1.1q-.05.45-.3.6l-.55.1-.75-.15q-.35-.15-1.15-.35-.6-.2-1.75-.2-1.85 0-3.35.55-1.4.65-2.15 1.65-.75 1.05-.75 2.7 0 1.8.65 2.9.7 1.2 1.8 1.85l2.45 1.45q1.4.7 2.05 1.1.9.55 1.5 1.35.6.85.6 2.05 0 1-.5 1.55-.6.6-1.3.8-.9.25-1.7.25-1.2 0-1.95-.4-.8-.4-1.3-1.35-.5-.9-1-2.9h-1.4Z" id="m"/><path fill="#020203" d="M102 156.15q1.55 0 2.6 1.05t1.65 3.7h1.3l-.15-6.15h-1.05q-.05.4-.35.6l-.5.1q-.35 0-.8-.15-.35-.15-1.15-.35-.6-.2-1.75-.2-1.8 0-3.3.55-1.4.6-2.15 1.65-.8 1-.8 2.7 0 1.75.7 2.9.7 1.2 1.8 1.85 1.3.85 2.4 1.45 1.1.5 2.05 1.1 1 .6 1.55 1.35.55.85.55 2.05 0 1-.5 1.55-.5.6-1.3.8-.9.25-1.7.25-1.25 0-1.9-.4-.8-.35-1.35-1.35-.6-1.15-1-2.9h-1.4l.25 6.3h1.2q0-.4.25-.65.15-.25.5-.25.3 0 .7.25.25.15 1.1.4.85.25 2.1.25 1.95 0 3.65-.65 1.65-.65 2.5-1.9.9-1.2.9-3.05 0-1.35-.45-2.4-.45-1.1-1.25-1.8-.85-.85-1.7-1.3-.9-.6-1.95-1.05l-2.1-1.05q-.85-.45-1.55-1.25-.6-.65-.6-1.75 0-1.15.75-1.7.7-.55 2.25-.55Z" id="n"/><path fill="#020203" d="M112.1 156.55q.6.25.75.75.15.6.15 1.7v11.55q0 1.15-.25 1.6-.2.5-.8.65-.55.2-1.55.2v1.25h16.1l.7-5.75h-1.35q-.45 1.45-.7 1.95-.35.85-.9 1.2-.55.45-1.45.65l-5.6.15v-7.25h2.5q1.4 0 2.05.15.65.15.8.75.2.45.2 1.8h1.3v-6.75h-1.3q0 1.2-.2 1.65-.15.55-.8.7-.9.1-2.05.1h-2.5v-6.7h3.7q1.6 0 2.35.3.8.35 1.15 1.1.3.6.55 2.05h1.45l-.2-5.25h-15.8v1.25q1 0 1.7.2Z" id="o"/><path fill="#020203" d="m40.1 187.65-2.2 2.2 2.1 2.1q.3 3.4 2.3 5.85 2.6 3.2 6.85 3.2 2.9 0 5.35-2 2.4-2.1 2.75-5l-2.1-.8q-.35 1.9-1.75 3.35-1.45 1.45-3.35 1.45-2.65 0-4-3-.65-1.45-.85-3l2.05-2.2-2.1-2.15q.2-1.65.85-3.2 1.35-3.05 3.85-3.05 3.4 0 4.6 5.3l1.7-.05v-7.1l-1.75-.15q-3.15-.45-5.55-.45-4.45 0-6.85 3.6-1.45 2.25-1.9 5.1Z" id="p"/><path fill="#020203" d="M78.4 182.4q-2.6-3.6-6.8-3.6-4.25 0-6.95 3.6-1.85 2.5-2.3 5.35l-2.1 2.1 2.05 2.05q.45 3.2 2.3 5.7 2.7 3.55 6.8 3.55 4.25 0 6.95-3.55 1.8-2.45 2.3-5.55l2.1-2.25-2.15-2.15q-.4-2.75-2.2-5.25m-6.8-.85q1.9 0 2.7 3.8l.4 2.35-2.2 2.15 2.25 2.25.05-.05q-.3 6.65-3.2 6.65-1.9 0-2.85-3.35-.4-1.25-.7-3.25l2.15-2.3-2.1-2.15q.6-6.1 3.5-6.1Z" id="q"/><path fill="#020203" d="M94.2 183.65q0-.95.55-1.6.6-.7 1.5-.7v-2.3l-9.1.05v2.25q1.1-.2 1.7.7.5.7.5 1.9v3.8l-2.1 2.1 2.1 2.15v1.25q0 3.3 2.2 5.55 2.2 2.2 5.5 2.2 2.75 0 4.9-1.75 2.3-1.85 2.3-4.55v-3.1l1.7-1.8-1.7-1.7v-4.45q0-2.1 1.9-2.1h.2l-.05-2.6-7.5.1v2.3q2.6.1 2.6 3.35v3.55l-1.6 1.6 1.6 1.65v2.6q0 1.6-.85 2.7-.85 1.15-2.6 1.15-3.75 0-3.75-3.95v-1.9l2.1-2.3-2.1-2.15v-4Z" id="r"/><path fill="#020203" d="M111.45 181.7q1.55 0 1.55 2.4v3.65l-2.1 2.1L113 192v4.1q0 .95-.6 1.65-.55.7-1.5.8v2q9.1.1 9.6-.05v-2.25q-1-.05-1.65-.85-.65-.75-.65-1.85v-2.65q0-1.05 1.6-1.05 1.55 0 2.75 2.6l1.5 3.95q1.45 2.35 4.15 2.35 1.45 0 2.7-1 1.2-1.05 1.2-2.5 0-1-.6-2.2-.95 1.8-1.95 1.8-.65 0-1.5-1.5l-1-2.1q-.9-1.6-2.3-2.25l4.65-1.25-1-1.5q.4-.85.4-2.15 0-3.05-1.95-5.15-1.95-2.05-5.1-2.05l-10.95.2v2.75l.65-.15m8 7.85-1.1-.15v-4.7q0-2.65 3.15-2.65 1.25 0 1.85.9.6.75.6 2.1 0 2.05-1.25 3.25-1.2 1.25-3.25 1.25Z" id="s"/></defs><use xlink:href="#a" transform="scale(4.00865) rotate(43.971 151.943 133.918)"/><use xlink:href="#b" transform="scale(4.00865) rotate(43.971 151.943 133.918)"/><use xlink:href="#c" transform="scale(4.00865) rotate(43.971 151.943 133.918)"/><use xlink:href="#d" transform="scale(4.00865) rotate(43.971 151.943 133.918)"/><use xlink:href="#e" transform="rotate(43.971 -355.008 637.572) scale(.99997)"/><use xlink:href="#f" transform="rotate(43.971 -355.008 637.572) scale(.99997)"/><use xlink:href="#g" transform="scale(4.00865) rotate(43.971 151.943 133.918)"/><use xlink:href="#h" transform="scale(4.00865) rotate(43.971 151.943 133.918)"/><use xlink:href="#i" transform="scale(4.00865) rotate(43.971 151.943 133.918)"/><use xlink:href="#j" transform="scale(4.00865) rotate(43.971 151.943 133.918)"/><use xlink:href="#k" transform="translate(470.15 547.45)"/><use xlink:href="#l" transform="translate(270.45 -112.7) scale(4.00897)"/><use xlink:href="#m" transform="translate(270.45 -112.7) scale(4.00897)"/><use xlink:href="#n" transform="translate(270.45 -112.7) scale(4.00897)"/><use xlink:href="#o" transform="translate(270.45 -112.7) scale(4.00897)"/><use xlink:href="#p" transform="matrix(4.00877 0 0 4.00877 270.45 -112.7)"/><use xlink:href="#q" transform="matrix(4.00877 0 0 4.00877 270.45 -112.7)"/><use xlink:href="#r" transform="matrix(4.00877 0 0 4.00877 270.45 -112.7)"/><use xlink:href="#s" transform="matrix(4.00877 0 0 4.00877 270.45 -112.7)"/></svg>