<svg xmlns="http://www.w3.org/2000/svg" xmlns:xlink="http://www.w3.org/1999/xlink" preserveAspectRatio="none" width="1024" height="1024"><defs><path fill="#9B6442" d="m58.05 121.4-.1 24.65 53.8.15.05-24.65-53.75-.15Z" id="a"/><path fill="#6A432D" d="m80.7 146.65-.15 49.55q0 1.9 1.35 3.2 1.35 1.35 3.2 1.35 1.9 0 3.2-1.3 1.35-1.35 1.35-3.25l.15-49.5q0-1.85-1.35-3.2-1.3-1.35-3.2-1.35-1.9 0-3.2 1.3-1.35 1.35-1.35 3.2Z" id="b"/><path fill="#6A432D" d="M78.9 149.6q-1.1 1.05-1.1 2.55 0 1.45 1.05 2.55 1.05 1.05 2.55 1.05l7.75.05q1.5 0 2.55-1.05 1.05-1.1 1.05-2.6 0-1.45-1.05-2.55-1.05-1.05-2.55-1.05h-7.7q-1.5-.05-2.55 1.05Z" id="c"/><path fill="#D8A359" d="m80.25 121.45-.05 24.7h10.35l.05-24.65-10.35-.05Z" id="d"/><path fill="#6A432D" d="M108.95-156.9q-6.4-6.4-15.2-6.4-8.85 0-15.25 6.4-6.4 6.2-6.4 15.25l-.2 75.75q0 8.85 6.2 15.25 6.4 6.2 15.25 6.2 8.8.2 15.2-6.2Q115-57.05 115-65.9l.2-75.75q0-8.85-6.25-15.25Z" id="e"/><path fill="#6A432D" d="M-71-142.05q.2-8.85-6.2-15.25-6.45-6.4-15.25-6.4t-15.25 6.2q-6.2 6.4-6.4 15.25l-.2 75.75q0 9.05 6.4 15.45 6.45 6.2 15.25 6.2t15.25-6.2q6.2-6.4 6.2-15.25l.2-75.75Z" id="f"/><path fill="#9B6442" d="M90.2 120.7q-.35.3-.35.8l-.1 24.85q0 .45.35.8.35.3.8.3.5 0 .8-.3.35-.35.35-.8l.05-24.85q0-.5-.35-.8-.3-.35-.8-.35-.45 0-.75.35Z" id="g"/><path fill="#9B6442" d="M78.9 120.65q-.35.35-.35.8l-.05 24.85q0 .45.35.8.3.35.75.35.5 0 .8-.35.35-.3.35-.8l.05-24.85q0-.45-.3-.8-.35-.3-.8-.35-.5 0-.8.35Z" id="h"/><path fill="#9B6442" d="M80.05 173.8q-.45.4-.45 1t.4 1.05q.45.4 1 .4h8.1q.6 0 1.05-.4.4-.45.4-1 0-.6-.4-1-.45-.45-1-.45h-8.1q-.6-.05-1 .4Z" id="i"/><path fill="#9B6442" d="M80.05 170q-.45.4-.45 1t.45 1.05q.4.4 1 .4h8.1q.55 0 1-.4.4-.45.4-1.05 0-.55-.4-1-.4-.4-1-.4l-8.1-.05q-.6 0-1 .45Z" id="j"/></defs><use xlink:href="#a" transform="scale(-4.23338) rotate(-70.287 -187.716 147.153)"/><use xlink:href="#b" transform="scale(-4.23338) rotate(-70.287 -187.716 147.153)"/><use xlink:href="#c" transform="scale(-4.23338) rotate(-70.287 -187.716 147.153)"/><use xlink:href="#d" transform="scale(-4.23338) rotate(-70.287 -187.716 147.153)"/><use xlink:href="#e" transform="rotate(109.713 20.586 347.326) scale(1.05603)"/><use xlink:href="#f" transform="rotate(109.713 20.586 347.326) scale(1.05603)"/><use xlink:href="#g" transform="scale(-4.23338) rotate(-70.287 -187.716 147.153)"/><use xlink:href="#h" transform="scale(-4.23338) rotate(-70.287 -187.716 147.153)"/><use xlink:href="#i" transform="scale(-4.23338) rotate(-70.287 -187.716 147.153)"/><use xlink:href="#j" transform="scale(-4.23338) rotate(-70.287 -187.716 147.153)"/></svg>