<?xml version="1.0" encoding="UTF-8"?>
<svg id="Calque_1" data-name="Calque 1" xmlns="http://www.w3.org/2000/svg" viewBox="0 0 488.26 425.76">
  <defs>
    <style>
      .cls-1 {
        fill: #e2a04a;
      }

      .cls-2 {
        fill: #a4613b;
      }

      .cls-3 {
        fill: #714028;
      }
    </style>
  </defs>
  <g>
    <rect class="cls-2" x="104.15" y="12.72" width="278.7" height="127.87" transform="translate(.2 -.64) rotate(.15)"/>
    <rect class="cls-3" x="221.34" y="119.85" width="47.15" height="303.83" rx="16.2" ry="16.2" transform="translate(.71 -.64) rotate(.15)"/>
    <rect class="cls-3" x="206.76" y="153.03" width="77.54" height="37.48" rx="8.54" ry="8.54" transform="translate(.45 -.64) rotate(.15)"/>
    <rect class="cls-1" x="219.34" y="12.73" width="53.55" height="127.87" transform="translate(.2 -.64) rotate(.15)"/>
    <rect class="cls-3" x="333.99" y=".62" width="55.72" height="153.71" rx="15.45" ry="15.45" transform="translate(.2 -.95) rotate(.15)"/>
    <rect class="cls-3" x="97.86" y=".03" width="55.72" height="153.71" rx="15.93" ry="15.93" transform="translate(.2 -.33) rotate(.15)"/>
    <rect class="cls-2" x="268.94" y="6.96" width="11.77" height="140.51" rx="3.63" ry="3.63" transform="translate(.2 -.72) rotate(.15)"/>
    <rect class="cls-2" x="210.43" y="6.81" width="11.77" height="140.51" rx="3.46" ry="3.46" transform="translate(.2 -.57) rotate(.15)"/>
    <rect class="cls-2" x="216.01" y="281.81" width="56.86" height="14.86" rx="5.14" ry="5.14" transform="translate(.76 -.64) rotate(.15)"/>
    <rect class="cls-2" x="216.06" y="262.04" width="56.86" height="14.86" rx="4.52" ry="4.52" transform="translate(.71 -.64) rotate(.15)"/>
  </g>
  <g>
    <path d="m69.07,286.21H17.5v-6.5c3.88,0,6.8-.33,8.75-.98,1.94-.65,3.22-1.96,3.86-3.93.63-1.97.94-4.91.94-8.84v-59.39c0-3.83-.34-6.67-1.02-8.54-.68-1.86-1.99-3.07-3.93-3.63-1.94-.55-4.81-.83-8.6-.83v-6.65h48.66c8.93,0,15.98.93,21.12,2.8,5.15,1.87,8.79,4.48,10.93,7.86,2.14,3.38,3.21,7.33,3.21,11.86,0,6.75-1.99,11.89-5.97,15.41-3.98,3.53-9.09,6.15-15.3,7.86v.91c4.17.6,8.23,1.76,12.16,3.48,3.94,1.71,7.19,4.33,9.76,7.86,2.58,3.53,3.86,8.36,3.86,14.51,0,8.87-3.18,15.54-9.54,20.02-6.36,4.48-15.47,6.72-27.32,6.72Zm-16.31-90.52v34.61h7.14c7.18,0,12.02-1.33,14.5-4,2.48-2.67,3.71-7.28,3.71-13.83,0-5.94-1.26-10.3-3.79-13.07-2.53-2.77-7.43-4.16-14.71-4.16-1.07,0-2.14.03-3.21.08-1.07.05-2.29.18-3.64.38Zm8.16,82.96c3.01,0,5.78-.17,8.3-.53,2.52-.35,4.71-1.16,6.55-2.42,1.84-1.26,3.28-3.2,4.3-5.82,1.02-2.62,1.53-6.14,1.53-10.58,0-6.14-.97-10.7-2.91-13.68-1.94-2.97-4.44-4.94-7.5-5.89-3.06-.96-6.39-1.44-9.98-1.44h-8.45v39.9c1.36.1,2.67.2,3.93.3,1.26.1,2.67.15,4.23.15Z"/>
    <path d="m140.9,286.21h-33.22v-6.5c2.53,0,4.59-.4,6.19-1.21,1.6-.81,3.06-2.27,4.37-4.38,1.31-2.12,2.7-5.14,4.15-9.07l31.62-78.89h15.3l31.47,79.19c1.94,4.84,4.01,8.44,6.19,10.8,2.19,2.37,4.93,3.55,8.23,3.55v6.5h-46.77v-6.5c1.26,0,2.55-.08,3.86-.23,1.31-.15,2.43-.58,3.35-1.29.92-.7,1.38-1.81,1.38-3.32,0-1.11-.29-2.77-.87-4.99-.58-2.21-1.26-4.38-2.04-6.5l-4.08-11.03-1.16-3.93-13.7-39.59h-.58l-15.44,39.59-1.17,3.93-4.95,13c-.39,1.31-.83,2.77-1.31,4.38-.49,1.61-.73,3.07-.73,4.38,0,2.42.75,3.96,2.26,4.61,1.5.66,4.05.98,7.65.98v6.5Zm31.91-31.89h-37.59l2.62-7.86h32.34l2.62,7.86Z"/>
    <path d="m228.75,288.18h-6.26l-1.31-32.64h7.28c1.55,6.45,3.28,11.41,5.17,14.89,1.89,3.48,4.2,5.87,6.92,7.18,2.72,1.31,6.02,1.96,9.91,1.96,3.11,0,6.04-.43,8.81-1.28,2.77-.85,5.02-2.27,6.77-4.23,1.75-1.96,2.62-4.61,2.62-7.93,0-4.33-1.02-7.88-3.06-10.65-2.04-2.77-4.69-5.14-7.94-7.1-3.26-1.97-6.77-3.85-10.56-5.67-4.47-2.32-8.65-4.76-12.53-7.33-3.89-2.57-7-5.79-9.33-9.67-2.33-3.88-3.5-8.89-3.5-15.04,0-5.64,1.31-10.33,3.93-14.05,2.62-3.73,6.36-6.55,11.22-8.46,4.85-1.91,10.59-2.87,17.19-2.87,3.69,0,6.72.3,9.11.91,2.38.61,4.34,1.21,5.9,1.81,1.55.61,2.91.91,4.08.91.87,0,1.75-.23,2.62-.68.87-.45,1.46-1.44,1.75-2.95h5.54l.87,31.74h-6.85c-2.14-9.17-4.98-15.57-8.52-19.19-3.55-3.63-8.04-5.44-13.48-5.44-5.15,0-9.03.96-11.66,2.87-2.62,1.91-3.93,4.89-3.93,8.92,0,3.73,1.02,6.78,3.06,9.14,2.04,2.37,4.76,4.46,8.16,6.27,3.4,1.81,7.04,3.68,10.93,5.59,3.5,1.61,6.87,3.4,10.13,5.37,3.25,1.96,6.19,4.26,8.82,6.88,2.62,2.62,4.71,5.72,6.26,9.29,1.55,3.58,2.33,7.73,2.33,12.47,0,6.25-1.53,11.51-4.59,15.79-3.06,4.28-7.33,7.53-12.82,9.75-5.49,2.21-11.87,3.33-19.16,3.33-4.66,0-8.26-.38-10.78-1.13-2.53-.76-4.44-1.51-5.75-2.27-1.31-.76-2.5-1.13-3.57-1.13s-1.97.43-2.69,1.29c-.73.86-1.09,1.99-1.09,3.4Z"/>
    <path d="m305.81,288.18h-6.26l-1.31-32.64h7.28c1.55,6.45,3.28,11.41,5.17,14.89,1.89,3.48,4.2,5.87,6.92,7.18,2.72,1.31,6.02,1.96,9.91,1.96,3.11,0,6.04-.43,8.81-1.28,2.77-.85,5.02-2.27,6.77-4.23,1.75-1.96,2.62-4.61,2.62-7.93,0-4.33-1.02-7.88-3.06-10.65-2.04-2.77-4.69-5.14-7.94-7.1-3.26-1.97-6.77-3.85-10.56-5.67-4.47-2.32-8.65-4.76-12.53-7.33-3.89-2.57-7-5.79-9.33-9.67-2.33-3.88-3.5-8.89-3.5-15.04,0-5.64,1.31-10.33,3.93-14.05,2.62-3.73,6.36-6.55,11.22-8.46,4.85-1.91,10.59-2.87,17.19-2.87,3.69,0,6.72.3,9.11.91,2.38.61,4.34,1.21,5.9,1.81,1.55.61,2.91.91,4.08.91.87,0,1.75-.23,2.62-.68.87-.45,1.46-1.44,1.75-2.95h5.54l.87,31.74h-6.85c-2.14-9.17-4.98-15.57-8.52-19.19-3.55-3.63-8.04-5.44-13.48-5.44-5.15,0-9.03.96-11.66,2.87-2.62,1.91-3.93,4.89-3.93,8.92,0,3.73,1.02,6.78,3.06,9.14,2.04,2.37,4.76,4.46,8.16,6.27,3.4,1.81,7.04,3.68,10.93,5.59,3.5,1.61,6.87,3.4,10.13,5.37,3.25,1.96,6.19,4.26,8.82,6.88,2.62,2.62,4.71,5.72,6.26,9.29,1.55,3.58,2.33,7.73,2.33,12.47,0,6.25-1.53,11.51-4.59,15.79-3.06,4.28-7.33,7.53-12.82,9.75-5.49,2.21-11.87,3.33-19.16,3.33-4.66,0-8.26-.38-10.78-1.13-2.53-.76-4.44-1.51-5.75-2.27-1.31-.76-2.5-1.13-3.57-1.13s-1.97.43-2.69,1.29c-.73.86-1.09,1.99-1.09,3.4Z"/>
    <path d="m459.22,286.21h-83.48v-6.5c3.3,0,5.95-.28,7.94-.83,1.99-.55,3.42-1.71,4.3-3.48.87-1.76,1.31-4.51,1.31-8.24v-59.99c0-3.83-.29-6.7-.87-8.61-.58-1.91-1.85-3.22-3.79-3.93-1.94-.7-4.91-1.06-8.89-1.06v-6.65h81.88l.87,27.35h-7.43c-.68-4.53-1.63-8.11-2.84-10.73-1.22-2.62-3.18-4.46-5.9-5.52-2.72-1.06-6.8-1.59-12.24-1.59h-19.23v34.76h12.97c4.85,0,8.4-.25,10.63-.76,2.23-.5,3.66-1.66,4.3-3.48.63-1.81.95-4.68.95-8.61h6.85v34.91h-6.85c0-4.23-.32-7.33-.95-9.29-.63-1.96-2.07-3.22-4.3-3.78-2.24-.55-5.78-.83-10.63-.83h-12.97v37.63h17.19c4.76,0,8.69-.3,11.8-.91,3.11-.6,5.61-1.66,7.5-3.17,1.89-1.51,3.47-3.6,4.74-6.27,1.26-2.67,2.48-6.07,3.64-10.2h6.99l-3.5,29.77Z"/>
  </g>
  <g>
    <path d="m48.36,366.98l-10.58,11.33c.76,5.59,2.27,10.73,4.38,15.41,4.68,10.43,11.48,15.72,20.7,15.72,6.65,0,12.54-2.57,17.53-7.71,4.69-4.69,7.56-10.43,8.92-17.23l10.88,4.08c-1.21,10.12-5.89,18.74-14.2,25.84-8.31,6.95-17.53,10.43-27.81,10.43-14.81,0-26.6-5.59-35.51-16.62-6.8-8.46-10.73-18.59-11.94-30.22l-10.73-10.88,11.33-11.33c1.51-10.13,4.84-18.89,9.82-26.45,8.31-12.54,20.25-18.74,35.51-18.74,8.46,0,17.98.76,28.71,2.42l9.22.61v36.87l-8.92.3c-4.08-18.28-12.09-27.35-23.88-27.35-8.61,0-15.26,5.29-19.8,15.72-2.27,5.14-3.78,10.73-4.53,16.62l10.88,11.18Z"/>
    <path d="m232.27,366.98l-10.88,11.64c-1.66,10.73-5.59,20.25-11.79,28.56-9.22,12.39-21.31,18.59-35.96,18.59s-25.99-6.2-35.21-18.59c-6.5-8.77-10.58-18.59-12.09-29.47l-10.43-10.58,10.73-10.88c1.66-10.28,5.74-19.49,11.94-27.8,9.37-12.39,21.46-18.59,36.12-18.59s25.99,6.2,35.06,18.59c5.89,8.01,9.82,17.08,11.49,27.2l11.03,11.33Zm-52.89.15l11.18-11.18c-.46-4.08-1.06-8.16-1.97-12.24-2.87-13-7.56-19.49-13.9-19.49-10.13,0-16.17,10.58-18.28,31.58l10.88,11.18-11.03,11.79c.61,5.59,1.82,11.33,3.48,16.92,3.48,11.64,8.46,17.38,14.96,17.38,10.12,0,15.56-11.48,16.47-34.45l-.3.15-11.49-11.64Z"/>
    <path d="m320.82,367.13l8.31-8.31v-18.44c0-11.33-4.53-17.07-13.45-17.23l-.15-12.09,38.99-.3.15,13.3h-.91c-6.5,0-9.82,3.63-9.82,11.03v22.97l8.61,8.91-8.61,9.22v16.02c0,9.37-3.93,17.23-11.94,23.58-7.41,6.04-15.87,9.07-25.39,9.07-11.48,0-21.01-3.78-28.56-11.33-7.56-7.71-11.33-17.23-11.33-28.71v-6.65l-10.88-11.03,10.88-10.88v-19.8c0-3.78-.91-7.1-2.72-9.67-2.12-3.17-4.99-4.38-8.76-3.78v-11.49l47.15-.3v11.79c-6.5.15-10.73,5.44-10.73,12.09v20.55l11.03,11.33-11.03,11.79v9.97c0,13.6,6.5,20.4,19.49,20.4,5.74,0,10.28-1.96,13.45-5.89,3.02-3.63,4.53-8.31,4.53-14.2v-13.45l-8.31-8.46Z"/>
    <path d="m378.25,367.13l10.88-10.88v-18.89c0-8.31-2.72-12.39-8.01-12.39-1.06,0-2.12.15-3.32.61v-14.21c3.63,0,22.52-.3,56.67-.91,10.73,0,19.65,3.48,26.45,10.58,6.8,7.1,10.27,16.02,10.27,26.75,0,4.08-.76,7.71-2.27,11.03l5.29,7.86-18.28,4.68c-1.81.76-3.78,1.21-5.74,1.66,4.69,2.42,8.61,6.35,11.79,11.64l5.14,11.03c2.87,5.14,5.44,7.71,7.86,7.71,3.33,0,6.65-3.02,9.97-9.22,2.27,4.08,3.33,7.86,3.33,11.33,0,5.14-2.12,9.37-6.35,12.84-4.08,3.48-8.76,5.14-14.05,5.14-9.37,0-16.47-3.93-21.31-11.94-1.66-4.68-4.38-11.48-8.01-20.55-4.08-9.07-8.77-13.6-14.2-13.6s-8.31,1.81-8.31,5.59v13.6c0,7.25,4.84,13.9,11.94,14.05v11.79c-1.97.45-18.59.45-49.72.15v-10.27c6.5-.76,10.88-6.35,10.88-12.85v-21.31l-10.88-11.03Zm64.68-35.81c-2.27-3.17-5.44-4.68-9.82-4.68-10.88,0-16.32,4.68-16.32,13.9v24.18c1.96.45,3.93.76,5.74.76,14.05,0,23.42-9.22,23.42-23.27,0-4.53-1.06-8.16-3.02-10.88Z"/>
  </g>
</svg>